<svg xmlns="http://www.w3.org/2000/svg" viewBox="0 0 5641.17 850.4"><defs><style>.cls-1{fill:#000000;}</style></defs><g id="Con1" data-name="Con2"><g id="Con3" data-name="Con4"><g id="Con5" data-name="con6"><g id="Con7" data-name="Con8"><path class="cls-1" d="M424.75,0H0V212.19H425.57c117.26.44,212.19,95.63,212.19,213s-94.93,212.55-212.19,213H0v212.2H424.75C659.58,850.39,850,660,850,425.2S659.58,0,424.75,0Z"/><circle class="cls-1" cx="424.98" cy="425.2" r="106.38"/></g></g><g id="Con9" data-name="Con10"><g id="Con11" data-name="Con12"><path class="cls-1" d="M1808.13,425V.2H1595.94V425.77h0C1595.5,543,1500.31,638,1382.94,638s-212.56-94.92-213-212.19h0V.2H957.74V425c0,234.84,190.37,425.25,425.2,425.25S1808.13,659.79,1808.13,425Z"/></g></g><g id="Con13" data-name="Con14"><g id="Con15" data-name="Con16"><path class="cls-1" d="M2341.07,850.39h424.8V638.2H2340.25c-117.26-.44-212.19-95.63-212.19-213s94.93-212.56,212.19-213h425.62V0h-424.8c-234.83,0-425.2,190.37-425.2,425.2S2106.24,850.39,2341.07,850.39Z"/></g></g><g id="Con17" data-name="Con18"><g id="Con19" data-name="Con20"><path class="cls-1" d="M2873.62,425.38v424.8h212.19V424.56h0c.44-117.26,95.63-212.19,213-212.19s212.55,94.93,213,212.19h0V850.18H3724V425.38C3724,190.55,3533.62.18,3298.82.18S2873.62,190.55,2873.62,425.38Z"/><circle class="cls-1" cx="3298.82" cy="425.16" r="106.38"/></g></g><g id="Con21" data-name="Con22"><g id="Con23" data-name="Con24"><path class="cls-1" d="M3831.75,425.36v424.8h212.19V424.54h0c.44-117.26,95.63-212.19,213-212.19s212.55,94.93,213,212.19h0V850.16h212.2V425.36C4682.14,190.53,4491.75.16,4257,.16S3831.75,190.53,3831.75,425.36Z"/><path class="cls-1" d="M4470.28,425.36v424.8h212.2V424.54h0c.44-117.26,95.62-212.19,213-212.19s212.56,94.93,213,212.19h0V850.16h212.19V425.36c0-234.83-190.37-425.2-425.2-425.2S4470.28,190.53,4470.28,425.36Z"/></g></g><g id="Con25" data-name="Con26"><g id="Con27" data-name="Con28"><circle class="cls-1" cx="5534.79" cy="106.38" r="106.38"/><rect class="cls-1" x="5428.69" y="278.93" width="212.19" height="571.47"/></g></g></g></g></svg>