  <svg class="trashcan" xmlns="http://www.w3.org/2000/svg" xmlns:xlink="http://www.w3.org/1999/xlink" x="0px" y="0px" viewBox="0 0 25 24.8" style="enable-background:new 0 0 25 24.8;" xml:space="preserve" class="icon-trashcan ct-delete" data-ember-action="" data-ember-action-1015="1015" width="100px" 
    fill="black">
  <g class="trashcan-open">
    <path d="M18.7,24.4H5.9L4.9,7h14.9L18.7,24.4z M7.6,22.6H17l0.8-13.7h-11L7.6,22.6z"></path>
    <polygon points="13.6,10.3 13.1,21.2 14.9,21.2 15.4,10.3 "></polygon>
    <polygon points="11.5,21.2 11,10.3 9.2,10.3 9.7,21.2 "></polygon>
    <path d="M19.1,0.7l-4.7,0.9l-0.8-1.4L8.2,1.3L8,3l-4.7,1l0.2,4.7l17.3-3.5L19.1,0.7z 
             
             M8.8,1.9l4.4 -1.0 l0.5,0.8
             L8.7,2.8z 
             
             M5.2,6.4l0-1L18,2.8l0.3,0.9L5.2,6.4z"></path>
  </g>

  </svg>