<svg width="28" height="44" viewBox="0 0 48 72" fill="none" xmlns="http://www.w3.org/2000/svg">
<path d="M2.15636 40.6121L38.1579 70.6134C39.3817 71.6258 40.9569 72.1119 42.5384 71.9653C44.1199 71.8187 45.5789 71.0514 46.5959 69.8314C47.6129 68.6113 48.1049 67.038 47.9643 65.4559C47.8237 63.8739 47.0619 62.412 45.8457 61.3904L15.3757 36.0005L45.8457 10.6105C47.0665 9.59032 47.8326 8.12728 47.9755 6.54273C48.1184 4.95818 47.6265 3.3817 46.6078 2.1596C45.5891 0.937496 44.127 0.169716 42.5426 0.0249176C40.9582 -0.11988 39.3812 0.370146 38.1579 1.38735L2.15636 31.3891C1.48131 31.9531 0.938299 32.6584 0.565693 33.4553C0.193087 34.2521 -3.43323e-05 35.121 -3.43323e-05 36.0006C-3.43323e-05 36.8803 0.193087 37.7492 0.565693 38.546C0.938299 39.3429 1.48131 40.0482 2.15636 40.6121V40.6121Z" fill="black"/>
</svg>
